<?xml version="1.0" standalone="no"?>
<!DOCTYPE svg PUBLIC "-//W3C//DTD SVG 20010904//EN"
 "http://www.w3.org/TR/2001/REC-SVG-20010904/DTD/svg10.dtd">
<svg version="1.0" xmlns="http://www.w3.org/2000/svg"
 width="512.000000pt" height="512.000000pt" viewBox="0 0 512.000000 512.000000"
 preserveAspectRatio="xMidYMid meet">
<metadata>
Created by potrace 1.14, written by Peter Selinger 2001-2017
</metadata>
<g transform="translate(0.000000,512.000000) scale(0.100000,-0.100000)"
fill="#000000" stroke="none">
<path d="M2295 4739 c-305 -39 -637 -156 -890 -314 -440 -275 -766 -689 -925
-1173 -81 -247 -110 -430 -110 -692 0 -262 29 -445 110 -692 215 -655 733
-1173 1388 -1388 168 -55 351 -95 396 -86 24 5 28 3 16 -5 -11 -8 -3 -9 33 -5
26 3 47 2 47 -2 0 -13 393 -14 500 -2 728 81 1360 524 1676 1175 109 226 177
460 204 703 12 113 11 502 -2 502 -4 0 -5 21 -2 48 4 35 3 43 -5 32 -8 -12
-10 -8 -5 16 9 45 -31 228 -86 396 -159 484 -485 898 -925 1173 -259 162 -587
276 -905 315 -100 12 -415 11 -515 -1z m193 -146 c-10 -2 -26 -2 -35 0 -10 3
-2 5 17 5 19 0 27 -2 18 -5z m345 0 c-7 -2 -21 -2 -30 0 -10 3 -4 5 12 5 17 0
24 -2 18 -5z m-450 -10 c-7 -2 -19 -2 -25 0 -7 3 -2 5 12 5 14 0 19 -2 13 -5z
m534 1 c-3 -3 -12 -4 -19 -1 -8 3 -5 6 6 6 11 1 17 -2 13 -5z m-610 -10 c-3
-3 -12 -4 -19 -1 -8 3 -5 6 6 6 11 1 17 -2 13 -5z m680 0 c-3 -3 -12 -4 -19
-1 -8 3 -5 6 6 6 11 1 17 -2 13 -5z m60 -10 c-3 -3 -12 -4 -19 -1 -8 3 -5 6 6
6 11 1 17 -2 13 -5z m-1697 -398 c0 -2 -8 -10 -17 -17 -16 -13 -17 -12 -4 4
13 16 21 21 21 13z m2631 -43 c13 -16 12 -17 -3 -4 -17 13 -22 21 -14 21 2 0
10 -8 17 -17z m-2681 3 c0 -2 -8 -10 -17 -17 -16 -13 -17 -12 -4 4 13 16 21
21 21 13z m2740 -51 c13 -14 21 -25 18 -25 -2 0 -15 11 -28 25 -13 14 -21 25
-18 25 2 0 15 -11 28 -25z m-2810 -8 c0 -2 -19 -21 -42 -42 l-43 -40 40 43
c36 39 45 47 45 39z m-100 -100 c0 -2 -19 -21 -42 -42 l-43 -40 40 43 c36 39
45 47 45 39z m3096 -79 l29 -33 -32 29 c-31 28 -38 36 -30 36 2 0 16 -15 33
-32z m-3196 -31 c0 -2 -10 -12 -22 -23 l-23 -19 19 23 c18 21 26 27 26 19z
m3255 -37 c10 -11 16 -20 13 -20 -3 0 -13 9 -23 20 -10 11 -16 20 -13 20 3 0
13 -9 23 -20z m-3305 -24 c0 -2 -8 -10 -17 -17 -16 -13 -17 -12 -4 4 13 16 21
21 21 13z m-30 -40 c0 -2 -8 -10 -17 -17 -16 -13 -17 -12 -4 4 13 16 21 21 21
13z m3401 -23 c13 -16 12 -17 -3 -4 -10 7 -18 15 -18 17 0 8 8 3 21 -13z
m-2164 -50 c7 -22 344 -756 350 -762 2 -3 9 10 16 29 6 18 84 193 173 389
l161 356 361 3 c199 1 362 0 362 -3 0 -3 -67 -125 -148 -272 -274 -494 -381
-689 -388 -706 -6 -16 8 -17 223 -11 134 4 232 3 235 -2 4 -5 4 -87 1 -181
l-6 -173 -328 0 -329 0 0 -93 0 -93 326 4 c180 3 329 1 334 -4 5 -5 6 -87 3
-181 l-6 -173 -329 0 -328 0 0 -210 0 -210 -330 0 -330 0 0 210 0 210 -335 0
-335 0 0 180 0 180 335 0 335 0 0 90 0 90 -335 0 -335 0 0 180 0 180 236 0
c130 0 234 4 232 8 -1 5 -123 220 -270 479 -147 259 -270 478 -274 487 -6 15
25 16 355 16 335 0 362 -1 368 -17z m2530 -795 c-3 -8 -6 -5 -6 6 -1 11 2 17
5 13 3 -3 4 -12 1 -19z m-4170 -70 c-3 -8 -6 -5 -6 6 -1 11 2 17 5 13 3 -3 4
-12 1 -19z m-10 -80 c-3 -7 -5 -2 -5 12 0 14 2 19 5 13 2 -7 2 -19 0 -25z
m-10 -105 c-3 -10 -5 -2 -5 17 0 19 2 27 5 18 2 -10 2 -26 0 -35z m0 -330 c-3
-10 -5 -2 -5 17 0 19 2 27 5 18 2 -10 2 -26 0 -35z m10 -95 c-3 -7 -5 -2 -5
12 0 14 2 19 5 13 2 -7 2 -19 0 -25z m10 -70 c-3 -8 -6 -5 -6 6 -1 11 2 17 5
13 3 -3 4 -12 1 -19z m10 -60 c-3 -8 -6 -5 -6 6 -1 11 2 17 5 13 3 -3 4 -12 1
-19z m404 -885 c13 -16 12 -17 -3 -4 -10 7 -18 15 -18 17 0 8 8 3 21 -13z m89
-108 c13 -14 21 -25 18 -25 -2 0 -15 11 -28 25 -13 14 -21 25 -18 25 2 0 15
-11 28 -25z m190 -190 c13 -14 21 -25 18 -25 -2 0 -15 11 -28 25 -13 14 -21
25 -18 25 2 0 15 -11 28 -25z m71 -62 c13 -16 12 -17 -3 -4 -17 13 -22 21 -14
21 2 0 10 -8 17 -17z m926 -429 c-3 -3 -12 -4 -19 -1 -8 3 -5 6 6 6 11 1 17
-2 13 -5z"/>
</g>
</svg>
